<mxfile host="Electron" modified="2023-05-11T20:18:14.840Z" agent="Mozilla/5.0 (Macintosh; Intel Mac OS X 10_15_7) AppleWebKit/537.36 (KHTML, like Gecko) draw.io/21.2.8 Chrome/112.0.5615.165 Electron/24.2.0 Safari/537.36" etag="BiROWKiuP9N3SY2UlL7b" version="21.2.8" type="device">
  <diagram name="Page-1" id="40vsBva7hbNui5GYfAQe">
    <mxGraphModel dx="954" dy="584" grid="1" gridSize="10" guides="1" tooltips="1" connect="1" arrows="1" fold="1" page="1" pageScale="1" pageWidth="827" pageHeight="1169" math="0" shadow="0">
      <root>
        <mxCell id="0" />
        <mxCell id="1" parent="0" />
        <mxCell id="G9XruiaiO37n5tsxCglA-1" value="Local Repo" style="swimlane;whiteSpace=wrap;html=1;" vertex="1" parent="1">
          <mxGeometry x="310" y="200" width="200" height="200" as="geometry" />
        </mxCell>
        <mxCell id="G9XruiaiO37n5tsxCglA-2" value="Horizontal Container" style="swimlane;horizontal=0;whiteSpace=wrap;html=1;" vertex="1" parent="1">
          <mxGeometry x="150" y="220" width="100" height="130" as="geometry" />
        </mxCell>
        <mxCell id="G9XruiaiO37n5tsxCglA-3" value="Horizontal Container" style="swimlane;horizontal=0;whiteSpace=wrap;html=1;" vertex="1" parent="1">
          <mxGeometry x="150" y="390" width="100" height="130" as="geometry" />
        </mxCell>
        <mxCell id="G9XruiaiO37n5tsxCglA-4" value="Horizontal Container" style="swimlane;horizontal=0;whiteSpace=wrap;html=1;" vertex="1" parent="1">
          <mxGeometry x="280" y="500" width="100" height="130" as="geometry" />
        </mxCell>
        <mxCell id="G9XruiaiO37n5tsxCglA-5" value="Horizontal Container" style="swimlane;horizontal=0;whiteSpace=wrap;html=1;" vertex="1" parent="1">
          <mxGeometry x="470" y="480" width="100" height="130" as="geometry" />
        </mxCell>
      </root>
    </mxGraphModel>
  </diagram>
</mxfile>
